<svg width="27" height="20" viewBox="0 0 27 20" fill="none" xmlns="http://www.w3.org/2000/svg">
<g clip-path="url(#clip0_8_472)">
<mask id="mask0_8_472" style="mask-type:luminance" maskUnits="userSpaceOnUse" x="0" y="0" width="28" height="20">
<path d="M27.0001 0H0V20H27.0001V0Z" fill="white"/>
</mask>
<g mask="url(#mask0_8_472)">
<path d="M10.4748 0.00280762H-1.68433V19.9977H10.4748V0.00280762Z" fill="#006600" stroke="url(#paint0_linear_8_472)" stroke-width="0.13765"/>
<path d="M28.6871 0H10.4482V20H28.6871V0Z" fill="#FF0000"/>
<path d="M9.75729 8.31823L9.79761 7.58618L14.8673 7.07737L14.8269 7.80941L9.75729 8.31823Z" fill="black"/>
<path d="M9.81131 8.22572L9.84204 7.66516L14.813 7.16911L14.7823 7.72968L9.81131 8.22572Z" fill="#EFEF00"/>
<path d="M9.75638 7.66308L9.76978 7.422L14.8924 6.91788L14.879 7.15896L9.75638 7.66308Z" fill="black"/>
<path d="M9.80618 7.57106L9.80981 7.50098L14.8423 7.01007L14.8387 7.08016L9.80618 7.57106Z" fill="#EFEF00"/>
<path d="M9.71537 8.47845L9.72876 8.23737L14.8514 7.73325L14.838 7.97433L9.71537 8.47845Z" fill="black"/>
<path d="M9.76517 8.38643L9.7688 8.31635L14.8013 7.82544L14.7977 7.89553L9.76517 8.38643Z" fill="#EFEF00"/>
<path d="M10.5239 10.6982L10.5642 9.96613L15.6339 9.45731L15.5935 10.1894L10.5239 10.6982Z" fill="black"/>
<path d="M10.5779 10.6057L10.6086 10.0452L15.5796 9.54912L15.5489 10.1097L10.5779 10.6057Z" fill="#EFEF00"/>
<path d="M10.523 10.0431L10.5364 9.802L15.659 9.29789L15.6456 9.53897L10.523 10.0431Z" fill="black"/>
<path d="M10.5728 9.95107L10.5764 9.88098L15.6089 9.39008L15.6053 9.46017L10.5728 9.95107Z" fill="#EFEF00"/>
<path d="M10.482 10.8585L10.4954 10.6174L15.618 10.1133L15.6046 10.3543L10.482 10.8585Z" fill="black"/>
<path d="M10.5318 10.7664L10.5354 10.6964L15.5679 10.2054L15.5643 10.2755L10.5318 10.7664Z" fill="#EFEF00"/>
<path d="M10.2172 13.3804L10.2576 12.6484L15.3272 12.1396L15.2869 12.8716L10.2172 13.3804Z" fill="black"/>
<path d="M10.2713 13.2879L10.302 12.7274L15.273 12.2313L15.2422 12.7919L10.2713 13.2879Z" fill="#EFEF00"/>
<path d="M10.2163 12.7253L10.2297 12.4842L15.3524 11.9801L15.339 12.2212L10.2163 12.7253Z" fill="black"/>
<path d="M10.2661 12.6333L10.2698 12.5632L15.3023 12.0723L15.2987 12.1424L10.2661 12.6333Z" fill="#EFEF00"/>
<path d="M10.1753 13.5406L10.1887 13.2996L15.3113 12.7954L15.2979 13.0365L10.1753 13.5406Z" fill="black"/>
<path d="M10.2251 13.4486L10.2288 13.3785L15.2613 12.8876L15.2576 12.9577L10.2251 13.4486Z" fill="#EFEF00"/>
<path d="M10.9019 13.1915L10.8616 12.4595L5.79193 11.9507L5.83224 12.6827L10.9019 13.1915Z" fill="black"/>
<path d="M10.8479 13.099L10.8171 12.5385L5.84617 12.0424L5.8769 12.603L10.8479 13.099Z" fill="#EFEF00"/>
<path d="M10.9028 12.5364L10.8894 12.2953L5.76678 11.7912L5.78018 12.0323L10.9028 12.5364Z" fill="black"/>
<path d="M10.853 12.4444L10.8494 12.3743L5.81685 11.8834L5.82048 11.9535L10.853 12.4444Z" fill="#EFEF00"/>
<path d="M10.9438 13.3517L10.9304 13.1107L5.8078 12.6065L5.82119 12.8476L10.9438 13.3517Z" fill="black"/>
<path d="M10.894 13.2597L10.8904 13.1896L5.85786 12.6987L5.86149 12.7688L10.894 13.2597Z" fill="#EFEF00"/>
<path d="M10.2758 10.962L10.5103 10.2977L5.1126 9.72149L4.87818 10.3858L10.2758 10.962Z" fill="black"/>
<path d="M10.2522 10.8775L10.4312 10.3685L5.13644 9.80546L4.95745 10.3144L10.2522 10.8775Z" fill="#EFEF00"/>
<path d="M10.5165 10.3721L10.5938 10.1524L5.13413 9.57761L5.05691 9.79733L10.5165 10.3721Z" fill="black"/>
<path d="M10.4977 10.2881L10.519 10.2248L5.15332 9.66155L5.13194 9.72481L10.4977 10.2881Z" fill="#EFEF00"/>
<path d="M10.2724 11.1073L10.3496 10.8876L4.88999 10.3128L4.81277 10.5326L10.2724 11.1073Z" fill="black"/>
<path d="M10.2535 11.0233L10.2749 10.96L4.90918 10.3968L4.8878 10.46L10.2535 11.0233Z" fill="#EFEF00"/>
<path d="M9.29427 10.7575L9.8457 10.1815L5.86942 7.50107L5.31799 8.0771L9.29427 10.7575Z" fill="black"/>
<path d="M9.32011 10.6636L9.74243 10.2224L5.84388 7.59441L5.42156 8.0356L9.32011 10.6636Z" fill="#EFEF00"/>
<path d="M9.80777 10.2681L9.98877 10.0789L5.97168 7.37055L5.79068 7.55969L9.80777 10.2681Z" fill="black"/>
<path d="M9.83714 10.176L9.88843 10.1224L5.94219 7.46207L5.8909 7.51566L9.83714 10.176Z" fill="#EFEF00"/>
<path d="M9.20595 10.8965L9.38696 10.7074L5.36965 7.99926L5.18864 8.18841L9.20595 10.8965Z" fill="black"/>
<path d="M9.23533 10.8049L9.28662 10.7513L5.34038 8.09104L5.28909 8.14463L9.23533 10.8049Z" fill="#EFEF00"/>
<path fill-rule="evenodd" clip-rule="evenodd" d="M14.8972 10.1928C14.8991 12.679 12.8532 14.6968 10.3303 14.6968C7.8074 14.7008 5.75818 12.6862 5.75614 10.2C5.75005 7.71369 7.79273 5.69275 10.3156 5.68872C12.8386 5.68083 14.8911 7.69223 14.8972 10.1783C14.8973 10.1833 14.8973 10.1876 14.8973 10.1926L14.8972 10.1928ZM15.9693 10.1928C15.9717 13.2622 13.4459 15.7532 10.3313 15.7532C7.2166 15.758 4.68639 13.2709 4.68434 10.2016C4.67679 7.13208 7.19866 4.63718 10.3133 4.63235C13.4281 4.62261 15.9619 7.10583 15.9693 10.175C15.9694 10.1813 15.9694 10.1865 15.9694 10.1928L15.9693 10.1928Z" fill="#EFEF00" fill-opacity="0.99967"/>
<path fill-rule="evenodd" clip-rule="evenodd" d="M15.8565 10.1929C15.8589 13.2009 13.3836 15.6421 10.3313 15.6421C7.27886 15.6469 4.79929 13.2094 4.79689 10.2016C4.78952 7.19345 7.26096 4.74841 10.3137 4.74368C13.3662 4.73413 15.8493 7.16769 15.8565 10.1755C15.8567 10.1816 15.8567 10.1868 15.8567 10.1929H15.8565ZM15.746 10.1929C15.7482 13.1408 13.3224 15.5332 10.3312 15.5332C7.33982 15.5378 4.91009 13.1492 4.90769 10.2012C4.90045 7.25322 7.32244 4.85691 10.314 4.85218C13.3054 4.84279 15.7388 7.22766 15.746 10.1755C15.7461 10.1815 15.7461 10.1866 15.7461 10.1925L15.746 10.1929Z" fill="black"/>
<path fill-rule="evenodd" clip-rule="evenodd" d="M15.1239 10.1927C15.1259 12.8022 12.9786 14.92 10.3307 14.92C7.68269 14.9241 5.53164 12.8096 5.52956 10.2002C5.52316 7.59068 7.66716 5.46959 10.3155 5.46548C12.9635 5.4572 15.1177 7.56833 15.1239 10.1777C15.124 10.183 15.124 10.1874 15.124 10.1927H15.1239ZM15.028 10.1927C15.03 12.7501 12.9256 14.8255 10.3306 14.8255C7.73557 14.8295 5.62776 12.7573 5.62568 10.1999C5.61939 7.64253 7.7205 5.56371 10.3157 5.5596C12.9108 5.55145 15.0217 7.62035 15.028 10.1777C15.0281 10.1829 15.0281 10.1872 15.0281 10.1924L15.028 10.1927Z" fill="black"/>
<path d="M10.776 4.61871H10.0752V15.8013H10.776V4.61871Z" fill="black"/>
<path d="M10.6934 4.72839H10.1567V15.6916H10.6934V4.72839Z" fill="#EFEF00"/>
<path d="M10.1568 4.5437H9.92676V15.8391H10.1568V4.5437Z" fill="black"/>
<path d="M10.0744 4.64398H10.0093V15.7387H10.0744V4.64398Z" fill="#EFEF00"/>
<path d="M10.9234 4.5437H10.6934V15.8391H10.9234V4.5437Z" fill="black"/>
<path d="M10.841 4.64398H10.7759V15.7387H10.841V4.64398Z" fill="#EFEF00"/>
<path d="M10.3986 11.8459L10.1292 11.1506L5.14521 12.1669L5.4147 12.8622L10.3986 11.8459Z" fill="black"/>
<path d="M10.3191 11.7753L10.1133 11.2422L5.2246 12.2367L5.43046 12.7699L10.3191 11.7753Z" fill="#EFEF00"/>
<path d="M10.2027 11.2261L10.1145 10.9954L5.07399 12.0164L5.16218 12.2472L10.2027 11.2261Z" fill="black"/>
<path d="M10.127 11.153L10.1023 11.087L5.1489 12.0892L5.17362 12.1552L10.127 11.153Z" fill="#EFEF00"/>
<path d="M10.4874 11.9928L10.3992 11.762L5.35866 12.783L5.44685 13.0138L10.4874 11.9928Z" fill="black"/>
<path d="M10.4117 11.9196L10.387 11.8536L5.43357 12.8558L5.45829 12.9218L10.4117 11.9196Z" fill="#EFEF00"/>
<path d="M9.90783 9.76609L9.87158 9.06396L4.63896 9.6371L4.67522 10.3392L9.90783 9.76609Z" fill="black"/>
<path d="M9.85233 9.69074L9.82471 9.15283L4.69406 9.71177L4.72168 10.2497L9.85233 9.69074Z" fill="#EFEF00"/>
<path d="M9.91308 9.14094L9.90112 8.90881L4.61412 9.47814L4.62607 9.71026L9.91308 9.14094Z" fill="black"/>
<path d="M9.86215 9.06539L9.85889 8.99805L4.66506 9.55308L4.66832 9.62042L9.86215 9.06539Z" fill="#EFEF00"/>
<path d="M9.94994 9.92317L9.93799 9.69104L4.65098 10.2604L4.66294 10.4925L9.94994 9.92317Z" fill="black"/>
<path d="M9.89902 9.84762L9.89575 9.78027L4.70192 10.3353L4.70519 10.4026L9.89902 9.84762Z" fill="#EFEF00"/>
<path d="M9.56382 9.59073L10.0022 8.92505L5.59779 7.00842L5.15942 7.6741L9.56382 9.59073Z" fill="black"/>
<path d="M9.57287 9.49382L9.90845 8.9837L5.58933 7.10473L5.25375 7.61485L9.57287 9.49382Z" fill="#EFEF00"/>
<path d="M9.98001 9.01662L10.1238 8.79736L5.67178 6.86129L5.52801 7.08054L9.98001 9.01662Z" fill="black"/>
<path d="M9.99252 8.9213L10.0332 8.85907L5.65929 6.95675L5.6186 7.01898L9.99252 8.9213Z" fill="#EFEF00"/>
<path d="M9.50516 9.74361L9.64893 9.52435L5.19692 7.58828L5.05315 7.80753L9.50516 9.74361Z" fill="black"/>
<path d="M9.51767 9.64829L9.55835 9.58606L5.18443 7.68374L5.14375 7.74597L9.51767 9.64829Z" fill="#EFEF00"/>
<path d="M16.032 9.84345L16.0422 9.14008L10.7817 8.87707L10.7714 9.58045L16.032 9.84345Z" fill="black"/>
<path d="M15.9819 9.75699L15.9897 9.21912L10.8322 8.96287L10.8244 9.50074L15.9819 9.75699Z" fill="#EFEF00"/>
<path d="M16.0761 9.21389L16.0796 8.98615L10.7655 8.72555L10.762 8.9533L16.0761 9.21389Z" fill="black"/>
<path d="M16.0303 9.12765L16.0312 9.06122L10.8113 8.81135L10.8103 8.87778L16.0303 9.12765Z" fill="#EFEF00"/>
<path d="M16.0658 9.99562L16.0693 9.76788L10.7552 9.50729L10.7517 9.73503L16.0658 9.99562Z" fill="black"/>
<path d="M16.0201 9.90939L16.021 9.84296L10.801 9.59309L10.8001 9.65952L16.0201 9.90939Z" fill="#EFEF00"/>
<path d="M15.3003 7.70777L15.0798 7.07306L10.75 6.93282L10.9705 7.56753L15.3003 7.70777Z" fill="black"/>
<path d="M15.2334 7.63123L15.0647 7.14581L10.8166 7.00877L10.9853 7.49419L15.2334 7.63123Z" fill="#EFEF00"/>
<path d="M15.1474 7.14333L15.0708 6.93842L10.6917 6.79687L10.7682 7.00178L15.1474 7.14333Z" fill="black"/>
<path d="M15.084 7.06696L15.0635 7.00793L10.7548 6.87344L10.7754 6.93246L15.084 7.06696Z" fill="#EFEF00"/>
<path d="M15.3729 7.8434L15.2964 7.63849L10.9173 7.49694L10.9938 7.70186L15.3729 7.8434Z" fill="black"/>
<path d="M15.3096 7.76703L15.2891 7.70801L10.9804 7.57351L11.001 7.63254L15.3096 7.76703Z" fill="#EFEF00"/>
<path d="M15.3598 12.791L15.6785 12.1276L10.8416 10.3819L10.5229 11.0454L15.3598 12.791Z" fill="black"/>
<path d="M15.3507 12.6958L15.5945 12.1871L10.8509 10.4764L10.6072 10.9851L15.3507 12.6958Z" fill="#EFEF00"/>
<path d="M15.6727 12.2163L15.7771 11.9969L10.8873 10.2354L10.7829 10.4547L15.6727 12.2163Z" fill="black"/>
<path d="M15.6673 12.1224L15.6968 12.0601L10.8925 10.3293L10.863 10.3916L15.6673 12.1224Z" fill="#EFEF00"/>
<path d="M15.3305 12.9428L15.4348 12.7234L10.545 10.9619L10.4406 11.1812L15.3305 12.9428Z" fill="black"/>
<path d="M15.325 12.8489L15.3545 12.7866L10.5502 11.0558L10.5207 11.1181L15.325 12.8489Z" fill="#EFEF00"/>
<path d="M13.558 6.521H7.05884V11.2356H13.558V6.521Z" fill="#F6F6FB"/>
<path d="M10.3078 14.0834C12.1025 14.0834 13.5573 12.7492 13.5573 11.1034C13.5573 9.45764 12.1025 8.12347 10.3078 8.12347C8.5132 8.12347 7.05835 9.45764 7.05835 11.1034C7.05835 12.7492 8.5132 14.0834 10.3078 14.0834Z" fill="#F6F6FB"/>
<path d="M12.063 7.90063H8.55347V10.4465H12.063V7.90063Z" fill="#F6F6FB"/>
<path d="M10.3082 12.3394C11.2774 12.3394 12.063 11.6189 12.063 10.7302C12.063 9.84148 11.2774 9.12103 10.3082 9.12103C9.33911 9.12103 8.55347 9.84148 8.55347 10.7302C8.55347 11.6189 9.33911 12.3394 10.3082 12.3394Z" fill="#F6F6FB"/>
<path d="M13.3946 6.71002H7.22046V11.1889H13.3946V6.71002Z" fill="#FF0000"/>
<path d="M10.3072 13.8943C12.0121 13.8943 13.3942 12.6268 13.3942 11.0633C13.3942 9.49982 12.0121 8.23236 10.3072 8.23236C8.60232 8.23236 7.22021 9.49982 7.22021 11.0633C7.22021 12.6268 8.60232 13.8943 10.3072 13.8943Z" fill="#FF0000"/>
<path d="M11.9747 8.02069H8.64062V10.4392H11.9747V8.02069Z" fill="#FF0000"/>
<path d="M10.3077 12.2375C11.2283 12.2375 11.9747 11.5531 11.9747 10.7088C11.9747 9.86454 11.2283 9.18011 10.3077 9.18011C9.38698 9.18011 8.64062 9.86454 8.64062 10.7088C8.64062 11.5531 9.38698 12.2375 10.3077 12.2375Z" fill="#FF0000"/>
<path d="M12.1503 8.15771H8.46533V10.8309H12.1503V8.15771Z" fill="#440000"/>
<path d="M10.3075 12.4456C11.3251 12.4456 12.15 11.6891 12.15 10.756C12.15 9.82282 11.3251 9.06635 10.3075 9.06635C9.28999 9.06635 8.46509 9.82282 8.46509 10.756C8.46509 11.6891 9.28999 12.4456 10.3075 12.4456Z" fill="#440000"/>
<path d="M11.3027 8.93994H9.31274V10.3834H11.3027V8.93994Z" fill="#440000"/>
<path d="M10.3077 11.4567C10.8572 11.4567 11.3027 11.0482 11.3027 10.5443C11.3027 10.0404 10.8572 9.6319 10.3077 9.6319C9.7582 9.6319 9.31274 10.0404 9.31274 10.5443C9.31274 11.0482 9.7582 11.4567 10.3077 11.4567Z" fill="#440000"/>
<path d="M11.9705 8.36658H8.64478V10.7791H11.9705V8.36658Z" fill="white"/>
<path d="M10.3074 12.2364C11.2257 12.2364 11.9702 11.5537 11.9702 10.7115C11.9702 9.86931 11.2257 9.18658 10.3074 9.18658C9.389 9.18658 8.64453 9.86931 8.64453 10.7115C8.64453 11.5537 9.389 12.2364 10.3074 12.2364Z" fill="white"/>
<path d="M11.2056 9.07257H9.40967V10.3753H11.2056V9.07257Z" fill="white"/>
<path d="M10.3076 11.344C10.8035 11.344 11.2056 10.9753 11.2056 10.5205C11.2056 10.0658 10.8035 9.69708 10.3076 9.69708C9.81169 9.69708 9.40967 10.0658 9.40967 10.5205C9.40967 10.9753 9.81169 11.344 10.3076 11.344Z" fill="white"/>
<path d="M10.8208 10.9456H9.84595V11.6528H10.8208V10.9456Z" fill="#3B3BFF"/>
<path d="M10.3334 12.08C10.6026 12.08 10.8208 11.8798 10.8208 11.633C10.8208 11.3861 10.6026 11.186 10.3334 11.186C10.0642 11.186 9.84595 11.3861 9.84595 11.633C9.84595 11.8798 10.0642 12.08 10.3334 12.08Z" fill="#3B3BFF"/>
<path d="M10.5967 11.1526H10.0703V11.5345H10.5967V11.1526Z" fill="#3B3BFF"/>
<path d="M10.3335 11.8184C10.4789 11.8184 10.5967 11.7103 10.5967 11.577C10.5967 11.4437 10.4789 11.3356 10.3335 11.3356C10.1882 11.3356 10.0703 11.4437 10.0703 11.577C10.0703 11.7103 10.1882 11.8184 10.3335 11.8184Z" fill="#3B3BFF"/>
<path d="M10.7965 10.974H9.87036V11.6458H10.7965V10.974Z" fill="#3B3BFF"/>
<path d="M10.3334 12.0516C10.5892 12.0516 10.7965 11.8615 10.7965 11.627C10.7965 11.3925 10.5892 11.2023 10.3334 11.2023C10.0777 11.2023 9.87036 11.3925 9.87036 11.627C9.87036 11.8615 10.0777 12.0516 10.3334 12.0516Z" fill="#3B3BFF"/>
<path d="M10.5836 11.1706H10.0835V11.5334H10.5836V11.1706Z" fill="#3B3BFF"/>
<path d="M10.3336 11.8031C10.4717 11.8031 10.5836 11.7004 10.5836 11.5738C10.5836 11.4471 10.4717 11.3445 10.3336 11.3445C10.1954 11.3445 10.0835 11.4471 10.0835 11.5738C10.0835 11.7004 10.1954 11.8031 10.3336 11.8031Z" fill="#3B3BFF"/>
<path d="M10.6101 11.1912H10.0574V11.5921H10.6101V11.1912Z" fill="#3B3BFF"/>
<path d="M10.3335 11.8343C10.4861 11.8343 10.6099 11.7209 10.6099 11.5809C10.6099 11.4409 10.4861 11.3275 10.3335 11.3275C10.1809 11.3275 10.0571 11.4409 10.0571 11.5809C10.0571 11.7209 10.1809 11.8343 10.3335 11.8343Z" fill="#3B3BFF"/>
<path d="M10.4828 11.3085H10.1843V11.525H10.4828V11.3085Z" fill="#3B3BFF"/>
<path d="M10.3336 11.686C10.416 11.686 10.4828 11.6247 10.4828 11.5492C10.4828 11.4736 10.416 11.4123 10.3336 11.4123C10.2511 11.4123 10.1843 11.4736 10.1843 11.5492C10.1843 11.6247 10.2511 11.686 10.3336 11.686Z" fill="#3B3BFF"/>
<path d="M10.5828 11.2225H10.084V11.5844H10.5828V11.2225Z" fill="#3B3BFF"/>
<path d="M10.3334 11.8029C10.4712 11.8029 10.5828 11.7005 10.5828 11.5742C10.5828 11.4479 10.4712 11.3455 10.3334 11.3455C10.1957 11.3455 10.084 11.4479 10.084 11.5742C10.084 11.7005 10.1957 11.8029 10.3334 11.8029Z" fill="#3B3BFF"/>
<path d="M10.4681 11.3284H10.1987V11.5238H10.4681V11.3284Z" fill="#3B3BFF"/>
<path d="M10.3334 11.6691C10.4078 11.6691 10.4681 11.6138 10.4681 11.5456C10.4681 11.4774 10.4078 11.4221 10.3334 11.4221C10.259 11.4221 10.1987 11.4774 10.1987 11.5456C10.1987 11.6138 10.259 11.6691 10.3334 11.6691Z" fill="#3B3BFF"/>
<path d="M10.0406 11.2895C10.1211 11.2895 10.1864 11.2252 10.1864 11.1458C10.1864 11.0665 10.1211 11.0021 10.0406 11.0021C9.96005 11.0021 9.89478 11.0665 9.89478 11.1458C9.89478 11.2252 9.96005 11.2895 10.0406 11.2895Z" fill="white"/>
<path d="M10.587 11.2895C10.6675 11.2895 10.7327 11.2252 10.7327 11.1458C10.7327 11.0665 10.6675 11.0021 10.587 11.0021C10.5064 11.0021 10.4412 11.0665 10.4412 11.1458C10.4412 11.2252 10.5064 11.2895 10.587 11.2895Z" fill="white"/>
<path d="M10.3089 11.592C10.3894 11.592 10.4547 11.5277 10.4547 11.4484C10.4547 11.369 10.3894 11.3047 10.3089 11.3047C10.2284 11.3047 10.1631 11.369 10.1631 11.4484C10.1631 11.5277 10.2284 11.592 10.3089 11.592Z" fill="white"/>
<path d="M10.0618 11.8851C10.1423 11.8851 10.2076 11.8208 10.2076 11.7415C10.2076 11.6621 10.1423 11.5978 10.0618 11.5978C9.98129 11.5978 9.91602 11.6621 9.91602 11.7415C9.91602 11.8208 9.98129 11.8851 10.0618 11.8851Z" fill="white"/>
<path d="M10.5811 11.8946C10.6616 11.8946 10.7269 11.8303 10.7269 11.7509C10.7269 11.6716 10.6616 11.6072 10.5811 11.6072C10.5006 11.6072 10.4353 11.6716 10.4353 11.7509C10.4353 11.8303 10.5006 11.8946 10.5811 11.8946Z" fill="white"/>
<path fill-rule="evenodd" clip-rule="evenodd" d="M7.31803 7.36807V7.45941H8.55388V7.36807H7.31803ZM7.42526 7.11606V7.37029H8.47573V7.11606H7.42526ZM7.33257 7.95189V8.04324H8.56843V7.95189H7.33257ZM7.66376 7.92364C7.66363 7.75781 7.79294 7.62323 7.95239 7.62323C8.11185 7.62297 8.24137 7.75733 8.24149 7.92316C8.24149 7.92448 8.24149 7.92558 8.24148 7.9269M7.63164 7.94015C7.6315 7.75589 7.77518 7.60636 7.95235 7.60636C8.12952 7.60607 8.27343 7.75536 8.27357 7.93961C8.27357 7.94107 8.27357 7.94231 8.27355 7.94376M7.42526 7.48446V7.94115H8.47573V7.48446H7.42526ZM7.31798 7.02895V7.11534H8.55384V7.02895H7.31798ZM7.31787 6.90709V7.02982H7.41309V6.90709H7.31787ZM8.45911 6.90709V7.02982H8.55433V6.90709H8.45911ZM7.50767 6.90956V7.03228H7.60289V6.90956H7.50767ZM8.26433 6.90707V7.02979H8.35955V6.90707H8.26433ZM7.69244 6.79143V6.91415H7.78766V6.79143H7.69244ZM8.07203 6.7914V6.91413H8.16725V6.7914H8.07203ZM7.88723 6.78894V6.91166H7.98245V6.78894H7.88723ZM7.69218 6.91503V7.03236H8.16668V6.91503H7.69218Z" fill="#FFFF00"/>
<path d="M7.78345 7.09912H7.68823V7.22184H7.78345V7.09912Z" fill="#FF0000"/>
<path d="M8.21045 7.09631H8.11523V7.21904H8.21045V7.09631Z" fill="#FF0000"/>
<path fill-rule="evenodd" clip-rule="evenodd" d="M12.0617 7.38272V7.47406H13.2975V7.38272H12.0617ZM12.1689 7.1307V7.38494H13.2194V7.1307H12.1689ZM12.0762 7.96654V8.05789H13.3121V7.96654H12.0762ZM12.4074 7.93829C12.4073 7.77246 12.5366 7.63788 12.696 7.63788C12.8555 7.63761 12.985 7.77198 12.9851 7.93781C12.9851 7.93912 12.9851 7.94023 12.9851 7.94154M12.3753 7.9548C12.3752 7.77054 12.5188 7.62101 12.696 7.62101C12.8732 7.62071 13.0171 7.77001 13.0172 7.95426C13.0172 7.95572 13.0172 7.95696 13.0172 7.95841M12.1689 7.49911V7.9558H13.2194V7.49911H12.1689ZM12.0616 7.04359V7.12999H13.2975V7.04359H12.0616ZM12.0615 6.92174V7.04446H12.1567V6.92174H12.0615ZM13.2028 6.92174V7.04446H13.298V6.92174H13.2028ZM12.2513 6.92421V7.04693H12.3465V6.92421H12.2513ZM13.008 6.92172V7.04444H13.1032V6.92172H13.008ZM12.4361 6.80608V6.9288H12.5313V6.80608H12.4361ZM12.8157 6.80605V6.92877H12.9109V6.80605H12.8157ZM12.6309 6.80359V6.92631H12.7261V6.80359H12.6309ZM12.4358 6.92968V7.047H12.9103V6.92968H12.4358Z" fill="#FFFF00"/>
<path d="M12.5269 7.11371H12.4316V7.23643H12.5269V7.11371Z" fill="#FF0000"/>
<path d="M12.9539 7.1109H12.8586V7.23362H12.9539V7.1109Z" fill="#FF0000"/>
<path fill-rule="evenodd" clip-rule="evenodd" d="M9.73453 7.38272V7.47406H10.9704V7.38272H9.73453ZM9.84176 7.1307V7.38494H10.8922V7.1307H9.84176ZM9.74908 7.96654V8.05789H10.9849V7.96654H9.74908ZM10.0803 7.93829C10.0801 7.77246 10.2094 7.63788 10.3689 7.63788C10.5284 7.63761 10.6579 7.77198 10.658 7.93781C10.658 7.93912 10.658 7.94023 10.658 7.94154M10.0481 7.9548C10.048 7.77054 10.1917 7.62101 10.3689 7.62101C10.546 7.62071 10.6899 7.77001 10.6901 7.95426C10.6901 7.95572 10.6901 7.95696 10.6901 7.95841M9.84176 7.49911V7.9558H10.8922V7.49911H9.84176ZM9.73449 7.04359V7.12999H10.9703V7.04359H9.73449ZM9.73438 6.92174V7.04446H9.82959V6.92174H9.73438ZM10.8756 6.92174V7.04446H10.9708V6.92174H10.8756ZM9.92417 6.92421V7.04693H10.0194V6.92421H9.92417ZM10.6808 6.92172V7.04444H10.7761V6.92172H10.6808ZM10.1089 6.80608V6.9288H10.2042V6.80608H10.1089ZM10.4885 6.80605V6.92877H10.5837V6.80605H10.4885ZM10.3037 6.80359V6.92631H10.399V6.80359H10.3037ZM10.1087 6.92968V7.047H10.5832V6.92968H10.1087Z" fill="#FFFF00"/>
<path d="M10.1995 7.11371H10.1042V7.23643H10.1995V7.11371Z" fill="#FF0000"/>
<path d="M10.6265 7.1109H10.5312V7.23362H10.6265V7.1109Z" fill="#FF0000"/>
<path fill-rule="evenodd" clip-rule="evenodd" d="M7.21427 10.2312V10.3225H8.45012V10.2312H7.21427ZM7.3215 9.97915V10.2334H8.37197V9.97915H7.3215ZM7.22881 10.815V10.9063H8.46467V10.815H7.22881ZM7.56 10.7867C7.55987 10.6209 7.68918 10.4863 7.84863 10.4863C8.00809 10.4861 8.13761 10.6204 8.13773 10.7863C8.13773 10.7876 8.13773 10.7887 8.13772 10.79M7.52788 10.8032C7.52774 10.619 7.67142 10.4695 7.84859 10.4695C8.02576 10.4692 8.16967 10.6185 8.16981 10.8027C8.16981 10.8042 8.16981 10.8054 8.16979 10.8069M7.3215 10.3476V10.8042H8.37197V10.3476H7.3215ZM7.21422 9.89204V9.97844H8.45008V9.89204H7.21422ZM7.21411 9.77019V9.89291H7.30933V9.77019H7.21411ZM8.35535 9.77019V9.89291H8.45057V9.77019H8.35535ZM7.40391 9.77265V9.89538H7.49913V9.77265H7.40391ZM8.16057 9.77017V9.89289H8.25579V9.77017H8.16057ZM7.58868 9.65453V9.77725H7.6839V9.65453H7.58868ZM7.96827 9.6545V9.77722H8.06349V9.6545H7.96827ZM7.78347 9.65204V9.77476H7.87869V9.65204H7.78347ZM7.58842 9.77813V9.89545H8.06292V9.77813H7.58842Z" fill="#FFFF00"/>
<path d="M7.67969 9.9624H7.58447V10.0851H7.67969V9.9624Z" fill="#FF0000"/>
<path d="M8.10669 9.95959H8.01147V10.0823H8.10669V9.95959Z" fill="#FF0000"/>
<path fill-rule="evenodd" clip-rule="evenodd" d="M12.1508 10.2022V10.2935H13.3866V10.2022H12.1508ZM12.258 9.95016V10.2044H13.3085V9.95016H12.258ZM12.1653 10.786V10.8773H13.4012V10.786H12.1653ZM12.4965 10.7577C12.4964 10.5919 12.6257 10.4573 12.7852 10.4573C12.9446 10.4571 13.0741 10.5914 13.0743 10.7573C13.0743 10.7586 13.0743 10.7597 13.0742 10.761M12.4644 10.7743C12.4643 10.59 12.6079 10.4405 12.7851 10.4405C12.9623 10.4402 13.1062 10.5895 13.1063 10.7737C13.1063 10.7752 13.1063 10.7764 13.1063 10.7779M12.258 10.3186V10.7753H13.3085V10.3186H12.258ZM12.1507 9.86305V9.94945H13.3866V9.86305H12.1507ZM12.1506 9.7412V9.86392H12.2459V9.7412H12.1506ZM13.2919 9.7412V9.86392H13.3871V9.7412H13.2919ZM12.3404 9.74366V9.86639H12.4357V9.74366H12.3404ZM13.0971 9.74118V9.8639H13.1923V9.74118H13.0971ZM12.5252 9.62553V9.74826H12.6204V9.62553H12.5252ZM12.9048 9.62551V9.74823H13V9.62551H12.9048ZM12.72 9.62305V9.74577H12.8152V9.62305H12.72ZM12.5249 9.74913V9.86646H12.9994V9.74913H12.5249Z" fill="#FFFF00"/>
<path d="M12.616 9.93304H12.5208V10.0558H12.616V9.93304Z" fill="#FF0000"/>
<path d="M13.043 9.93024H12.9478V10.053H13.043V9.93024Z" fill="#FF0000"/>
<path fill-rule="evenodd" clip-rule="evenodd" d="M8.28393 12.9935L8.35415 13.0531L9.16087 12.1305L9.09065 12.0708L8.28393 12.9935ZM8.16019 12.7489L8.35564 12.9149L9.04134 12.1306L8.8459 11.9647L8.16019 12.7489ZM8.74224 13.3637L8.81247 13.4233L9.61918 12.5007L9.54895 12.4411L8.74224 13.3637ZM8.9367 13.098C8.80914 12.9899 8.79009 12.8055 8.89418 12.6864C8.99806 12.5672 9.1859 12.5582 9.31346 12.6664C9.31447 12.6672 9.31532 12.668 9.31632 12.6688M8.92843 13.1328C8.78669 13.0126 8.76553 12.8077 8.88118 12.6754C8.9966 12.543 9.20531 12.533 9.34704 12.6532C9.34817 12.6541 9.34912 12.6549 9.35022 12.6559M8.44341 12.9894L8.79448 13.2875L9.48019 12.5033L9.12911 12.2051L8.44341 12.9894ZM8.0232 12.7721L8.08961 12.8285L8.89633 11.9059L8.82992 11.8495L8.0232 12.7721ZM7.92945 12.6927L8.0238 12.7728L8.08595 12.7017L7.99161 12.6216L7.92945 12.6927ZM8.67441 11.8407L8.76875 11.9208L8.83091 11.8497L8.73656 11.7696L8.67441 11.8407ZM8.05524 12.5526L8.14958 12.6327L8.21174 12.5616L8.11739 12.4815L8.05524 12.5526ZM8.54725 11.9861L8.64159 12.0662L8.70374 11.9951L8.6094 11.915L8.54725 11.9861ZM8.08504 12.3375L8.17938 12.4176L8.24154 12.3465L8.1472 12.2664L8.08504 12.3375ZM8.3328 12.0541L8.42714 12.1342L8.4893 12.0632L8.39495 11.983L8.3328 12.0541ZM8.21028 12.1905L8.30462 12.2706L8.36677 12.1995L8.27243 12.1194L8.21028 12.1905ZM8.17989 12.4184L8.27008 12.495L8.57982 12.1408L8.48962 12.0642L8.17989 12.4184Z" fill="#FFFF00"/>
<path d="M8.38105 12.4704L8.31885 12.5416L8.41309 12.6216L8.47529 12.5505L8.38105 12.4704Z" fill="#FF0000"/>
<path d="M8.65744 12.15L8.59521 12.2211L8.68948 12.3012L8.75171 12.23L8.65744 12.15Z" fill="#FF0000"/>
<path fill-rule="evenodd" clip-rule="evenodd" d="M12.3777 12.979L12.3075 13.0386L11.5008 12.116L11.571 12.0564L12.3777 12.979ZM12.5014 12.7344L12.306 12.9004L11.6203 12.1162L11.8157 11.9502L12.5014 12.7344ZM11.9194 13.3492L11.8492 13.4089L11.0424 12.4862L11.1127 12.4266L11.9194 13.3492ZM11.7249 13.0835C11.8525 12.9754 11.8715 12.791 11.7674 12.672C11.6636 12.5527 11.4757 12.5438 11.3482 12.6519C11.3471 12.6528 11.3463 12.6535 11.3453 12.6544M11.7332 13.1183C11.8749 12.9981 11.8961 12.7933 11.7804 12.661C11.665 12.5285 11.4563 12.5185 11.3146 12.6387C11.3135 12.6397 11.3125 12.6405 11.3114 12.6414M12.2182 12.9749L11.8671 13.273L11.1814 12.4888L11.5325 12.1907L12.2182 12.9749ZM12.6384 12.7577L12.572 12.8141L11.7653 11.8914L11.8317 11.835L12.6384 12.7577ZM12.7322 12.6782L12.6378 12.7583L12.5757 12.6872L12.67 12.6071L12.7322 12.6782ZM11.9872 11.8262L11.8929 11.9063L11.8307 11.8352L11.9251 11.7551L11.9872 11.8262ZM12.6064 12.5381L12.512 12.6182L12.4499 12.5471L12.5442 12.467L12.6064 12.5381ZM12.1144 11.9716L12.02 12.0517L11.9579 11.9806L12.0522 11.9005L12.1144 11.9716ZM12.5766 12.3231L12.4822 12.4032L12.4201 12.3321L12.5144 12.252L12.5766 12.3231ZM12.3288 12.0397L12.2345 12.1198L12.1723 12.0487L12.2667 11.9686L12.3288 12.0397ZM12.4513 12.176L12.357 12.2561L12.2948 12.185L12.3892 12.1049L12.4513 12.176ZM12.4817 12.4039L12.3915 12.4805L12.0818 12.1263L12.172 12.0497L12.4817 12.4039Z" fill="#FFFF00"/>
<path d="M12.2806 12.4559L12.3428 12.5271L12.2485 12.6072L12.1863 12.536L12.2806 12.4559Z" fill="#FF0000"/>
<path d="M12.0042 12.1355L12.0664 12.2067L11.9721 12.2867L11.9099 12.2156L12.0042 12.1355Z" fill="#FF0000"/>
<path d="M10.8052 8.43372H9.83032V9.1409H10.8052V8.43372Z" fill="#3B3BFF"/>
<path d="M10.3177 9.56806C10.5869 9.56806 10.8052 9.36793 10.8052 9.12106C10.8052 8.8742 10.5869 8.67407 10.3177 8.67407C10.0485 8.67407 9.83032 8.8742 9.83032 9.12106C9.83032 9.36793 10.0485 9.56806 10.3177 9.56806Z" fill="#3B3BFF"/>
<path d="M10.5811 8.64069H10.0547V9.02256H10.5811V8.64069Z" fill="#3B3BFF"/>
<path d="M10.3179 9.30648C10.4633 9.30648 10.5811 9.19841 10.5811 9.06511C10.5811 8.9318 10.4633 8.82373 10.3179 8.82373C10.1725 8.82373 10.0547 8.9318 10.0547 9.06511C10.0547 9.19841 10.1725 9.30648 10.3179 9.30648Z" fill="#3B3BFF"/>
<path d="M10.7809 8.4621H9.85474V9.13393H10.7809V8.4621Z" fill="#3B3BFF"/>
<path d="M10.3178 9.53972C10.5735 9.53972 10.7808 9.3496 10.7808 9.11507C10.7808 8.88055 10.5735 8.69043 10.3178 8.69043C10.0621 8.69043 9.85474 8.88055 9.85474 9.11507C9.85474 9.3496 10.0621 9.53972 10.3178 9.53972Z" fill="#3B3BFF"/>
<path d="M10.568 8.65869H10.0679V9.02147H10.568V8.65869Z" fill="#3B3BFF"/>
<path d="M10.3179 9.2912C10.456 9.2912 10.568 9.18853 10.568 9.06189C10.568 8.93524 10.456 8.83258 10.3179 8.83258C10.1798 8.83258 10.0679 8.93524 10.0679 9.06189C10.0679 9.18853 10.1798 9.2912 10.3179 9.2912Z" fill="#3B3BFF"/>
<path d="M10.5945 8.67926H10.0417V9.08024H10.5945V8.67926Z" fill="#3B3BFF"/>
<path d="M10.3179 9.32244C10.4705 9.32244 10.5942 9.20897 10.5942 9.069C10.5942 8.92902 10.4705 8.81555 10.3179 8.81555C10.1652 8.81555 10.0415 8.92902 10.0415 9.069C10.0415 9.20897 10.1652 9.32244 10.3179 9.32244Z" fill="#3B3BFF"/>
<path d="M10.4672 8.79657H10.1687V9.01309H10.4672V8.79657Z" fill="#3B3BFF"/>
<path d="M10.3179 9.17411C10.4004 9.17411 10.4672 9.11284 10.4672 9.03725C10.4672 8.96167 10.4004 8.90039 10.3179 8.90039C10.2355 8.90039 10.1687 8.96167 10.1687 9.03725C10.1687 9.11284 10.2355 9.17411 10.3179 9.17411Z" fill="#3B3BFF"/>
<path d="M10.5672 8.71057H10.0684V9.07245H10.5672V8.71057Z" fill="#3B3BFF"/>
<path d="M10.3178 9.29103C10.4555 9.29103 10.5672 9.18862 10.5672 9.06229C10.5672 8.93597 10.4555 8.83356 10.3178 8.83356C10.18 8.83356 10.0684 8.93597 10.0684 9.06229C10.0684 9.18862 10.18 9.29103 10.3178 9.29103Z" fill="#3B3BFF"/>
<path d="M10.4525 8.81647H10.1831V9.01188H10.4525V8.81647Z" fill="#3B3BFF"/>
<path d="M10.3178 9.15719C10.3922 9.15719 10.4525 9.10189 10.4525 9.03367C10.4525 8.96546 10.3922 8.91016 10.3178 8.91016C10.2434 8.91016 10.1831 8.96546 10.1831 9.03367C10.1831 9.10189 10.2434 9.15719 10.3178 9.15719Z" fill="#3B3BFF"/>
<path d="M10.0249 8.77758C10.1055 8.77758 10.1707 8.71325 10.1707 8.63391C10.1707 8.55456 10.1055 8.49023 10.0249 8.49023C9.94442 8.49023 9.87915 8.55456 9.87915 8.63391C9.87915 8.71325 9.94442 8.77758 10.0249 8.77758Z" fill="white"/>
<path d="M10.5713 8.77758C10.6518 8.77758 10.7171 8.71325 10.7171 8.63391C10.7171 8.55456 10.6518 8.49023 10.5713 8.49023C10.4908 8.49023 10.4255 8.55456 10.4255 8.63391C10.4255 8.71325 10.4908 8.77758 10.5713 8.77758Z" fill="white"/>
<path d="M10.2933 9.08013C10.3738 9.08013 10.439 9.01581 10.439 8.93646C10.439 8.85711 10.3738 8.79279 10.2933 8.79279C10.2127 8.79279 10.1475 8.85711 10.1475 8.93646C10.1475 9.01581 10.2127 9.08013 10.2933 9.08013Z" fill="white"/>
<path d="M10.0462 9.37322C10.1267 9.37322 10.192 9.3089 10.192 9.22955C10.192 9.1502 10.1267 9.08588 10.0462 9.08588C9.96566 9.08588 9.90039 9.1502 9.90039 9.22955C9.90039 9.3089 9.96566 9.37322 10.0462 9.37322Z" fill="white"/>
<path d="M10.5655 9.38268C10.646 9.38268 10.7113 9.31836 10.7113 9.23901C10.7113 9.15966 10.646 9.09534 10.5655 9.09534C10.485 9.09534 10.4197 9.15966 10.4197 9.23901C10.4197 9.31836 10.485 9.38268 10.5655 9.38268Z" fill="white"/>
<path d="M10.8052 9.68207H9.83032V10.3893H10.8052V9.68207Z" fill="#3B3BFF"/>
<path d="M10.3177 10.8164C10.5869 10.8164 10.8052 10.6163 10.8052 10.3694C10.8052 10.1225 10.5869 9.92242 10.3177 9.92242C10.0485 9.92242 9.83032 10.1225 9.83032 10.3694C9.83032 10.6163 10.0485 10.8164 10.3177 10.8164Z" fill="#3B3BFF"/>
<path d="M10.5811 9.88904H10.0547V10.2709H10.5811V9.88904Z" fill="#3B3BFF"/>
<path d="M10.3179 10.5548C10.4633 10.5548 10.5811 10.4468 10.5811 10.3135C10.5811 10.1802 10.4633 10.0721 10.3179 10.0721C10.1725 10.0721 10.0547 10.1802 10.0547 10.3135C10.0547 10.4468 10.1725 10.5548 10.3179 10.5548Z" fill="#3B3BFF"/>
<path d="M10.7809 9.71045H9.85474V10.3823H10.7809V9.71045Z" fill="#3B3BFF"/>
<path d="M10.3178 10.7881C10.5735 10.7881 10.7808 10.5979 10.7808 10.3634C10.7808 10.1289 10.5735 9.93878 10.3178 9.93878C10.0621 9.93878 9.85474 10.1289 9.85474 10.3634C9.85474 10.5979 10.0621 10.7881 10.3178 10.7881Z" fill="#3B3BFF"/>
<path d="M10.568 9.90704H10.0679V10.2698H10.568V9.90704Z" fill="#3B3BFF"/>
<path d="M10.3179 10.5395C10.456 10.5395 10.568 10.4369 10.568 10.3102C10.568 10.1836 10.456 10.0809 10.3179 10.0809C10.1798 10.0809 10.0679 10.1836 10.0679 10.3102C10.0679 10.4369 10.1798 10.5395 10.3179 10.5395Z" fill="#3B3BFF"/>
<path d="M10.5945 9.92761H10.0417V10.3286H10.5945V9.92761Z" fill="#3B3BFF"/>
<path d="M10.3179 10.5708C10.4705 10.5708 10.5942 10.4573 10.5942 10.3173C10.5942 10.1774 10.4705 10.0639 10.3179 10.0639C10.1652 10.0639 10.0415 10.1774 10.0415 10.3173C10.0415 10.4573 10.1652 10.5708 10.3179 10.5708Z" fill="#3B3BFF"/>
<path d="M10.4672 10.0449H10.1687V10.2614H10.4672V10.0449Z" fill="#3B3BFF"/>
<path d="M10.3179 10.4225C10.4004 10.4225 10.4672 10.3612 10.4672 10.2856C10.4672 10.21 10.4004 10.1487 10.3179 10.1487C10.2355 10.1487 10.1687 10.21 10.1687 10.2856C10.1687 10.3612 10.2355 10.4225 10.3179 10.4225Z" fill="#3B3BFF"/>
<path d="M10.5672 9.95892H10.0684V10.3208H10.5672V9.95892Z" fill="#3B3BFF"/>
<path d="M10.3178 10.5394C10.4555 10.5394 10.5672 10.437 10.5672 10.3106C10.5672 10.1843 10.4555 10.0819 10.3178 10.0819C10.18 10.0819 10.0684 10.1843 10.0684 10.3106C10.0684 10.437 10.18 10.5394 10.3178 10.5394Z" fill="#3B3BFF"/>
<path d="M10.4525 10.0648H10.1831V10.2602H10.4525V10.0648Z" fill="#3B3BFF"/>
<path d="M10.3178 10.4055C10.3922 10.4055 10.4525 10.3502 10.4525 10.282C10.4525 10.2138 10.3922 10.1585 10.3178 10.1585C10.2434 10.1585 10.1831 10.2138 10.1831 10.282C10.1831 10.3502 10.2434 10.4055 10.3178 10.4055Z" fill="#3B3BFF"/>
<path d="M10.0249 10.0259C10.1055 10.0259 10.1707 9.96161 10.1707 9.88226C10.1707 9.80291 10.1055 9.73859 10.0249 9.73859C9.94442 9.73859 9.87915 9.80291 9.87915 9.88226C9.87915 9.96161 9.94442 10.0259 10.0249 10.0259Z" fill="white"/>
<path d="M10.5713 10.0259C10.6518 10.0259 10.7171 9.96161 10.7171 9.88226C10.7171 9.80291 10.6518 9.73859 10.5713 9.73859C10.4908 9.73859 10.4255 9.80291 10.4255 9.88226C10.4255 9.96161 10.4908 10.0259 10.5713 10.0259Z" fill="white"/>
<path d="M10.2933 10.3285C10.3738 10.3285 10.439 10.2642 10.439 10.1848C10.439 10.1055 10.3738 10.0411 10.2933 10.0411C10.2127 10.0411 10.1475 10.1055 10.1475 10.1848C10.1475 10.2642 10.2127 10.3285 10.2933 10.3285Z" fill="white"/>
<path d="M10.0462 10.6216C10.1267 10.6216 10.192 10.5572 10.192 10.4779C10.192 10.3986 10.1267 10.3342 10.0462 10.3342C9.96566 10.3342 9.90039 10.3986 9.90039 10.4779C9.90039 10.5572 9.96566 10.6216 10.0462 10.6216Z" fill="white"/>
<path d="M10.5655 10.631C10.646 10.631 10.7113 10.5667 10.7113 10.4874C10.7113 10.408 10.646 10.3437 10.5655 10.3437C10.485 10.3437 10.4197 10.408 10.4197 10.4874C10.4197 10.5667 10.485 10.631 10.5655 10.631Z" fill="white"/>
<path d="M11.8867 9.68207H10.9119V10.3893H11.8867V9.68207Z" fill="#3B3BFF"/>
<path d="M11.3993 10.8164C11.6685 10.8164 11.8867 10.6163 11.8867 10.3694C11.8867 10.1225 11.6685 9.92242 11.3993 9.92242C11.1301 9.92242 10.9119 10.1225 10.9119 10.3694C10.9119 10.6163 11.1301 10.8164 11.3993 10.8164Z" fill="#3B3BFF"/>
<path d="M11.6627 9.88904H11.1362V10.2709H11.6627V9.88904Z" fill="#3B3BFF"/>
<path d="M11.3994 10.5548C11.5448 10.5548 11.6627 10.4468 11.6627 10.3135C11.6627 10.1802 11.5448 10.0721 11.3994 10.0721C11.2541 10.0721 11.1362 10.1802 11.1362 10.3135C11.1362 10.4468 11.2541 10.5548 11.3994 10.5548Z" fill="#3B3BFF"/>
<path d="M11.8624 9.71045H10.9363V10.3823H11.8624V9.71045Z" fill="#3B3BFF"/>
<path d="M11.3993 10.7881C11.6551 10.7881 11.8624 10.5979 11.8624 10.3634C11.8624 10.1289 11.6551 9.93878 11.3993 9.93878C11.1436 9.93878 10.9363 10.1289 10.9363 10.3634C10.9363 10.5979 11.1436 10.7881 11.3993 10.7881Z" fill="#3B3BFF"/>
<path d="M11.6495 9.90704H11.1494V10.2698H11.6495V9.90704Z" fill="#3B3BFF"/>
<path d="M11.3995 10.5395C11.5376 10.5395 11.6495 10.4369 11.6495 10.3102C11.6495 10.1836 11.5376 10.0809 11.3995 10.0809C11.2614 10.0809 11.1494 10.1836 11.1494 10.3102C11.1494 10.4369 11.2614 10.5395 11.3995 10.5395Z" fill="#3B3BFF"/>
<path d="M11.676 9.92761H11.1233V10.3286H11.676V9.92761Z" fill="#3B3BFF"/>
<path d="M11.3994 10.5708C11.5521 10.5708 11.6758 10.4573 11.6758 10.3173C11.6758 10.1774 11.5521 10.0639 11.3994 10.0639C11.2468 10.0639 11.123 10.1774 11.123 10.3173C11.123 10.4573 11.2468 10.5708 11.3994 10.5708Z" fill="#3B3BFF"/>
<path d="M11.5487 10.0449H11.2502V10.2614H11.5487V10.0449Z" fill="#3B3BFF"/>
<path d="M11.3995 10.4225C11.4819 10.4225 11.5487 10.3612 11.5487 10.2856C11.5487 10.21 11.4819 10.1487 11.3995 10.1487C11.3171 10.1487 11.2502 10.21 11.2502 10.2856C11.2502 10.3612 11.3171 10.4225 11.3995 10.4225Z" fill="#3B3BFF"/>
<path d="M11.6488 9.95892H11.1499V10.3208H11.6488V9.95892Z" fill="#3B3BFF"/>
<path d="M11.3993 10.5394C11.5371 10.5394 11.6488 10.437 11.6488 10.3106C11.6488 10.1843 11.5371 10.0819 11.3993 10.0819C11.2616 10.0819 11.1499 10.1843 11.1499 10.3106C11.1499 10.437 11.2616 10.5394 11.3993 10.5394Z" fill="#3B3BFF"/>
<path d="M11.534 10.0648H11.2646V10.2602H11.534V10.0648Z" fill="#3B3BFF"/>
<path d="M11.3993 10.4055C11.4737 10.4055 11.534 10.3502 11.534 10.282C11.534 10.2138 11.4737 10.1585 11.3993 10.1585C11.325 10.1585 11.2646 10.2138 11.2646 10.282C11.2646 10.3502 11.325 10.4055 11.3993 10.4055Z" fill="#3B3BFF"/>
<path d="M11.1065 10.0259C11.187 10.0259 11.2523 9.96161 11.2523 9.88226C11.2523 9.80291 11.187 9.73859 11.1065 9.73859C11.026 9.73859 10.9607 9.80291 10.9607 9.88226C10.9607 9.96161 11.026 10.0259 11.1065 10.0259Z" fill="white"/>
<path d="M11.6529 10.0259C11.7334 10.0259 11.7987 9.96161 11.7987 9.88226C11.7987 9.80291 11.7334 9.73859 11.6529 9.73859C11.5724 9.73859 11.5071 9.80291 11.5071 9.88226C11.5071 9.96161 11.5724 10.0259 11.6529 10.0259Z" fill="white"/>
<path d="M11.3748 10.3285C11.4553 10.3285 11.5206 10.2642 11.5206 10.1848C11.5206 10.1055 11.4553 10.0411 11.3748 10.0411C11.2943 10.0411 11.229 10.1055 11.229 10.1848C11.229 10.2642 11.2943 10.3285 11.3748 10.3285Z" fill="white"/>
<path d="M11.1277 10.6216C11.2082 10.6216 11.2735 10.5572 11.2735 10.4779C11.2735 10.3986 11.2082 10.3342 11.1277 10.3342C11.0472 10.3342 10.9819 10.3986 10.9819 10.4779C10.9819 10.5572 11.0472 10.6216 11.1277 10.6216Z" fill="white"/>
<path d="M11.647 10.631C11.7275 10.631 11.7928 10.5667 11.7928 10.4874C11.7928 10.408 11.7275 10.3437 11.647 10.3437C11.5665 10.3437 11.5012 10.408 11.5012 10.4874C11.5012 10.5667 11.5665 10.631 11.647 10.631Z" fill="white"/>
<path d="M9.7239 9.68207H8.74902V10.3893H9.7239V9.68207Z" fill="#3B3BFF"/>
<path d="M9.23645 10.8164C9.50564 10.8164 9.72387 10.6163 9.72387 10.3694C9.72387 10.1225 9.50564 9.92242 9.23645 9.92242C8.96725 9.92242 8.74902 10.1225 8.74902 10.3694C8.74902 10.6163 8.96725 10.8164 9.23645 10.8164Z" fill="#3B3BFF"/>
<path d="M9.49982 9.88904H8.97339V10.2709H9.49982V9.88904Z" fill="#3B3BFF"/>
<path d="M9.2366 10.5548C9.38197 10.5548 9.49982 10.4468 9.49982 10.3135C9.49982 10.1802 9.38197 10.0721 9.2366 10.0721C9.09123 10.0721 8.97339 10.1802 8.97339 10.3135C8.97339 10.4468 9.09123 10.5548 9.2366 10.5548Z" fill="#3B3BFF"/>
<path d="M9.69957 9.71045H8.77344V10.3823H9.69957V9.71045Z" fill="#3B3BFF"/>
<path d="M9.23649 10.7881C9.49223 10.7881 9.69954 10.5979 9.69954 10.3634C9.69954 10.1289 9.49223 9.93878 9.23649 9.93878C8.98075 9.93878 8.77344 10.1289 8.77344 10.3634C8.77344 10.5979 8.98075 10.7881 9.23649 10.7881Z" fill="#3B3BFF"/>
<path d="M9.48668 9.90704H8.98657V10.2698H9.48668V9.90704Z" fill="#3B3BFF"/>
<path d="M9.23663 10.5395C9.37473 10.5395 9.48668 10.4369 9.48668 10.3102C9.48668 10.1836 9.37473 10.0809 9.23663 10.0809C9.09853 10.0809 8.98657 10.1836 8.98657 10.3102C8.98657 10.4369 9.09853 10.5395 9.23663 10.5395Z" fill="#3B3BFF"/>
<path d="M9.5132 9.92761H8.96045V10.3286H9.5132V9.92761Z" fill="#3B3BFF"/>
<path d="M9.23657 10.5708C9.38921 10.5708 9.51294 10.4573 9.51294 10.3173C9.51294 10.1774 9.38921 10.0639 9.23657 10.0639C9.08394 10.0639 8.96021 10.1774 8.96021 10.3173C8.96021 10.4573 9.08394 10.5708 9.23657 10.5708Z" fill="#3B3BFF"/>
<path d="M9.38589 10.0449H9.0874V10.2614H9.38589V10.0449Z" fill="#3B3BFF"/>
<path d="M9.23665 10.4225C9.31907 10.4225 9.38589 10.3612 9.38589 10.2856C9.38589 10.21 9.31907 10.1487 9.23665 10.1487C9.15422 10.1487 9.0874 10.21 9.0874 10.2856C9.0874 10.3612 9.15422 10.4225 9.23665 10.4225Z" fill="#3B3BFF"/>
<path d="M9.48592 9.95892H8.98706V10.3208H9.48592V9.95892Z" fill="#3B3BFF"/>
<path d="M9.23648 10.5394C9.37424 10.5394 9.48591 10.437 9.48591 10.3106C9.48591 10.1843 9.37424 10.0819 9.23648 10.0819C9.09873 10.0819 8.98706 10.1843 8.98706 10.3106C8.98706 10.437 9.09873 10.5394 9.23648 10.5394Z" fill="#3B3BFF"/>
<path d="M9.37119 10.0648H9.10181V10.2602H9.37119V10.0648Z" fill="#3B3BFF"/>
<path d="M9.2365 10.4055C9.31089 10.4055 9.37119 10.3502 9.37119 10.282C9.37119 10.2138 9.31089 10.1585 9.2365 10.1585C9.16211 10.1585 9.10181 10.2138 9.10181 10.282C9.10181 10.3502 9.16211 10.4055 9.2365 10.4055Z" fill="#3B3BFF"/>
<path d="M8.94364 10.0259C9.02416 10.0259 9.08944 9.96161 9.08944 9.88226C9.08944 9.80291 9.02416 9.73859 8.94364 9.73859C8.86313 9.73859 8.79785 9.80291 8.79785 9.88226C8.79785 9.96161 8.86313 10.0259 8.94364 10.0259Z" fill="white"/>
<path d="M9.49003 10.0259C9.57055 10.0259 9.63582 9.96161 9.63582 9.88226C9.63582 9.80291 9.57055 9.73859 9.49003 9.73859C9.40951 9.73859 9.34424 9.80291 9.34424 9.88226C9.34424 9.96161 9.40951 10.0259 9.49003 10.0259Z" fill="white"/>
<path d="M9.21195 10.3285C9.29247 10.3285 9.35775 10.2642 9.35775 10.1848C9.35775 10.1055 9.29247 10.0411 9.21195 10.0411C9.13144 10.0411 9.06616 10.1055 9.06616 10.1848C9.06616 10.2642 9.13144 10.3285 9.21195 10.3285Z" fill="white"/>
<path d="M8.96488 10.6216C9.0454 10.6216 9.11068 10.5572 9.11068 10.4779C9.11068 10.3986 9.0454 10.3342 8.96488 10.3342C8.88437 10.3342 8.81909 10.3986 8.81909 10.4779C8.81909 10.5572 8.88437 10.6216 8.96488 10.6216Z" fill="white"/>
<path d="M9.48417 10.631C9.56469 10.631 9.62996 10.5667 9.62996 10.4874C9.62996 10.408 9.56469 10.3437 9.48417 10.3437C9.40365 10.3437 9.33838 10.408 9.33838 10.4874C9.33838 10.5667 9.40365 10.631 9.48417 10.631Z" fill="white"/>
</g>
</g>
<defs>
<linearGradient id="paint0_linear_8_472" x1="-4.85151" y1="0.000691751" x2="8.12388" y2="0.000691751" gradientUnits="userSpaceOnUse">
<stop/>
<stop offset="1" stop-color="white"/>
</linearGradient>
<clipPath id="clip0_8_472">
<rect width="27" height="20" fill="white"/>
</clipPath>
</defs>
</svg>
