<svg width="27" height="20" viewBox="0 0 27 20" fill="none" xmlns="http://www.w3.org/2000/svg">
<g clip-path="url(#clip0_8_461)">
<path d="M0 0H27V20H0V0Z" fill="#EE1C25"/>
<path d="M3.24013 7.4L5.06261 2L6.88509 7.4L2.02515 4.1H8.10007L3.24013 7.4Z" fill="#FFFF00"/>
<path d="M11.1447 2.10349L9.26914 2.514L10.5202 1.07414L10.3975 3.012L9.35669 1.29641L11.1447 2.10349Z" fill="#FFFF00"/>
<path d="M13.0376 4.47281L11.1477 4.13274L12.8662 3.28481L11.9922 5.02399L11.7065 3.04399L13.0376 4.47281Z" fill="#FFFF00"/>
<path d="M12.7618 7.79685L11.1766 6.72504L13.0959 6.64311L11.5796 7.87897L12.1364 5.95606L12.7618 7.79685Z" fill="#FFFF00"/>
<path d="M10.3777 9.96836L9.33468 8.37502L11.1371 9.03158L9.25518 9.59315L10.5207 8.03185L10.3777 9.96836Z" fill="#FFFF00"/>
</g>
<defs>
<clipPath id="clip0_8_461">
<rect width="27" height="20" fill="white"/>
</clipPath>
</defs>
</svg>
